<svg width="32" height="30" viewBox="0 0 32 30" fill="none" xmlns="http://www.w3.org/2000/svg">
<path d="M16.0002 5.4962L14.5662 4.0222C11.2002 0.562198 5.02824 1.7562 2.80025 6.1062C1.83625 7.9902 1.56025 10.6462 3.01625 14.0002H0.860245C-3.39575 2.6062 9.19024 -3.6598 15.6482 2.2862C15.7682 2.39686 15.8856 2.51086 16.0002 2.6282C16.1129 2.51012 16.2303 2.3967 16.3522 2.2882C22.8122 -3.6598 35.3962 2.6062 31.1402 14.0002H28.9842C30.4402 10.6462 30.1642 7.9902 29.2002 6.1062C26.9722 1.7562 20.8002 0.560198 17.4342 4.0202L16.0002 5.4962ZM4.42424 20.0002H7.05424C9.18624 22.3662 12.1002 24.9162 16.0002 27.5902C19.8982 24.9162 22.8142 22.3662 24.9462 20.0002H27.5762C25.0462 23.1322 21.2962 26.5002 16.0002 30.0002C10.7042 26.5002 6.95424 23.1322 4.42424 20.0002Z" fill="#145DB8"/>
</svg>
